<?xml version="1.0" encoding="utf-8"?>
<!-- Generator: Adobe Illustrator 17.1.0, SVG Export Plug-In . SVG Version: 6.00 Build 0)  -->
<!DOCTYPE svg PUBLIC "-//W3C//DTD SVG 1.1//EN" "http://www.w3.org/Graphics/SVG/1.1/DTD/svg11.dtd">
<svg version="1.1" id="Layer_1" xmlns="http://www.w3.org/2000/svg" xmlns:xlink="http://www.w3.org/1999/xlink" x="0px" y="0px"
	 viewBox="0 0 205 90" enable-background="new 0 0 205 90" xml:space="preserve">
<g>
	<g>
		<path fill="#FFFFFF" d="M37.8,60h-5.7c-0.3,0-0.5,0.5-0.6,0.7l-5,8.9c-0.3,0.5-1,0.6-1.3,0.1l-5-9c-0.1-0.2-0.4-0.7-0.6-0.7h-5.7
			c-0.6,0-0.9,1-0.6,1.5l6,10.6l6,10.5c0.3,0.5,1,0.5,1.3,0l6-10.3l6-10.7C38.8,61,38.4,60,37.8,60z"/>
		<path fill="#FFFFFF" d="M44.7,23.4c0.8,8.2-0.2,19.7-4.5,28.8l-0.5-1c3.7-7.9,4.5-23,2.9-31.5c-1.4-2.2-3.1-4.4-4.7-6.2
			c2.1,7.8,2.2,23.2-0.4,33.2l-0.5-1c1.6-9,0.8-27.1-1.8-35.1c-2.4-2.5-4.4-4.1-4.8-4.2c-0.8-0.3-0.4,1.3-0.4,1.3
			c3.4,8.1,2.9,23.9,3.9,32.8c-1.3-0.8-4.3-2.4-8.2-2.4c-3.2,0-6,1.1-7.6,2c1-9,0.5-24.4,3.9-32.4c0,0,0.5-1.5-0.4-1.3
			c-0.4,0.1-2.4,1.7-4.8,4.2c-2.6,7.8-3.4,24.9-2,34.2l-0.5,1.2c-2.5-10-2.3-24.9-0.2-32.5c-1.6,1.9-3.3,4-4.7,6.2
			c-1.6,8.5-0.9,23.3,2.7,31.3l-0.4,1c-4.2-9.1-5.1-20.4-4.4-28.6c-1.3,2.4-2.9,5.3-4.4,8.9C2.9,38.7,5.5,47,10.4,55h31.3
			c4.9-8,7.5-16.3,7.4-22.8C47.6,28.7,46,25.8,44.7,23.4z"/>
	</g>
	<g>
		<path fill="#FFFFFF" d="M202.8,39.1l-1.9-0.5l0,0c-0.7-0.2-1.4-0.4-2.3-0.6c-0.9-0.2-1.8-0.3-2.7-0.5c-1-0.1-1.9-0.2-2.9-0.3
			c-1-0.1-1.9-0.1-2.8-0.1c-2.1,0-4.1,0.3-5.8,0.9c-1.7,0.6-3.1,1.5-4.3,2.7c-1.2,1.2-2.1,2.5-2.7,4.1c-0.6,1.6-0.9,3.4-0.9,5.4
			c0,3.9,1,7,3,9.2c2,2.2,4.8,3.3,8.5,3.3c1,0,2-0.1,2.8-0.3c0.9-0.2,1.7-0.5,2.5-0.8v1c0,1.5-0.5,2.7-1.3,3.7
			c-0.9,0.9-2.4,1.4-4.6,1.4c-1.7,0-3.1-0.1-4.5-0.4c-1.3-0.3-2.6-0.6-3.7-1.1l-1.3,6.4c1.4,0.5,2.9,0.9,4.5,1.1
			c1.6,0.3,3.3,0.4,4.9,0.4c4.6,0,8.1-1.1,10.3-3.2c2.2-2.1,3.3-5.4,3.3-9.7c0,0,0-14,0-14.9C200.8,45.4,202.8,39.1,202.8,39.1z
			 M193.2,55.6c-0.5,0.3-1.1,0.5-1.7,0.7c-0.7,0.2-1.4,0.3-2.2,0.3c-3.4,0-5.1-2.1-5.1-6.4c0-2,0.5-3.7,1.5-5c1-1.3,2.5-2,4.5-2
			c0.7,0,1.3,0,1.8,0.1s0.9,0.1,1.3,0.2V55.6z"/>
		<path fill="#FFFFFF" d="M82.1,42c-0.5,1.5-0.9,3.1-1.4,4.7s-1,3.1-1.5,4.6c-0.5,1.5-1,2.9-1.4,4.1c-0.5-1.2-1-2.6-1.5-4.1
			c-0.5-1.5-1-3-1.5-4.6c-0.5-1.6-1-3.1-1.4-4.7c-0.5-1.5-0.9-3-1.2-4.3h-8c1.6,5.4,3.3,10.3,5.1,14.9c1.8,4.5,3.6,8.5,5.3,11.9h6.3
			c1.7-3.4,3.5-7.4,5.3-11.9c1.8-4.5,3.5-9.5,5.1-14.9h-7.8C83,39,82.6,40.5,82.1,42z"/>
		<rect x="93.9" y="37.7" fill="#FFFFFF" width="7.6" height="26.8"/>
		<path fill="#FFFFFF" d="M100.9,26.7c-0.9-0.8-2-1.2-3.2-1.2s-2.3,0.4-3.2,1.2c-0.9,0.8-1.3,1.9-1.3,3.3c0,1.4,0.4,2.5,1.3,3.3
			c0.9,0.8,2,1.2,3.2,1.2s2.3-0.4,3.2-1.2c0.9-0.8,1.3-1.9,1.3-3.3C102.2,28.6,101.8,27.5,100.9,26.7z"/>
		<path fill="#FFFFFF" d="M127.8,56.7c-1-1.4-2.1-2.7-3.2-4c-1.1-1.3-2.1-2.4-3.2-3.3c2-2,3.9-3.9,5.6-5.8c1.7-1.9,3.5-3.9,5.3-5.9
			h-9c-0.5,0.6-1,1.2-1.7,2c-0.7,0.8-1.4,1.6-2.1,2.5c-0.7,0.9-1.5,1.7-2.3,2.6c-0.8,0.9-1.6,1.7-2.3,2.5V25l-7.6,1.2v38.3h7.6V52.7
			c0.8,0.7,1.7,1.5,2.6,2.5c0.9,1,1.7,2,2.5,3.1c0.8,1.1,1.5,2.1,2.2,3.2c0.7,1.1,1.3,2,1.9,2.9h8.7c-0.6-1.1-1.3-2.4-2.1-3.7
			C129.8,59.4,128.8,58,127.8,56.7z"/>
		<rect x="135.6" y="37.7" fill="#FFFFFF" width="7.6" height="26.8"/>
		<path fill="#FFFFFF" d="M142.5,26.7c-0.9-0.8-2-1.2-3.2-1.2c-1.2,0-2.3,0.4-3.2,1.2c-0.9,0.8-1.3,1.9-1.3,3.3
			c0,1.4,0.4,2.5,1.3,3.3c0.9,0.8,2,1.2,3.2,1.2c1.2,0,2.3-0.4,3.2-1.2c0.9-0.8,1.3-1.9,1.3-3.3C143.9,28.6,143.4,27.5,142.5,26.7z"
			/>
		<path fill="#FFFFFF" d="M169.7,40.5c-0.9-1.1-2.1-1.9-3.6-2.5c-1.5-0.6-3.4-0.9-5.7-0.9c-2.2,0-4.4,0.2-6.4,0.5
			c-2,0.3-3.7,0.7-5,1v25.9h7.6V43.8c0.5-0.1,1-0.1,1.6-0.2c0.6-0.1,1.2-0.1,1.7-0.1c1.8,0,3,0.5,3.6,1.5c0.6,1,1,2.7,1,5.2v14.2
			h7.6V49.3c0-1.8-0.2-3.5-0.6-5C171.2,42.9,170.5,41.6,169.7,40.5z"/>
	</g>
</g>
</svg>
